<svg width="512" height="399" viewBox="0 0 512 399" fill="none" xmlns="http://www.w3.org/2000/svg">
<g clip-path="url(#clip0_6_2)">
<path d="M41.17 251.8C41.63 172.47 42.06 93.17 42.53 14.15C42.53 8.89001 46.29 4.50001 51.24 3.47001V3.45001C80.17 -2.57999 125.49 -1.04999 156.31 10.74C177.6 18.9 196.92 31.91 211.02 50.65C225.28 33.17 244.3 20.59 265.71 12.46C294.96 1.37001 338.97 -1.30999 370.71 3.34001C376.19 4.13001 380.11 8.83001 380.11 14.2H380.13V97.48C373.42 96.5546 366.654 96.0902 359.88 96.09L358.14 96.1V23.94C332.73 21.52 296.31 24.31 273.42 32.98C252.03 41.09 233.6 54.42 221.62 73.52V192.2C208.87 226.46 208.87 265.08 223.44 300.18C226.54 307.65 230.23 314.82 234.45 321.61C228.52 323.6 222.61 325.9 216.69 328.52C214.839 329.737 212.665 330.368 210.45 330.33C208.22 330.37 206.05 329.73 204.21 328.52C174.73 315.49 145.35 310.33 115.97 310.52C85.83 310.71 45.18 316.53 14.54 325.32C13.44 325.7 12.24 325.9 10.99 325.9C4.92 325.9 0 320.98 0 314.92V61.83C0 55.76 4.92 50.84 10.99 50.84H21.99V300.53C49.74 293.37 87.82 288.79 115.89 288.62C141.8 288.47 167.72 292.06 193.67 300.85C177.52 287.78 159.53 278.19 140.35 271.95C116.18 264.05 79.78 261.43 53.03 263.73C46.98 264.21 41.67 259.74 41.17 253.69C41.13 253.04 41.13 252.41 41.17 251.8ZM363.04 124.19C395.71 124.19 426.91 137.13 449.97 160.21C481.88 192.1 493.74 239.11 480.9 282.29C477.947 292.205 473.747 301.704 468.4 310.56L510.46 356.87C512.64 359.27 512.49 362.99 510.1 365.19L475.13 397.11C474.563 397.633 473.898 398.039 473.173 398.304C472.449 398.569 471.679 398.688 470.908 398.654C470.137 398.619 469.381 398.432 468.682 398.104C467.984 397.775 467.358 397.312 466.84 396.74L426.88 352.24C407.58 363.99 385.64 370.11 363.04 370.11C330.38 370.11 299.2 357.2 276.11 334.1C264.673 322.68 255.602 309.114 249.42 294.18C230.36 248.28 241.19 195.13 276.11 160.21C287.41 148.91 300.94 139.77 316.04 133.54C330.53 127.51 346.41 124.19 363.04 124.19ZM432.41 177.79C404.42 149.77 361.98 141.36 325.51 156.47C260.07 183.55 245.03 267.93 293.65 316.52C321.71 344.5 364.07 352.96 400.58 337.85C437.28 322.6 461.14 286.89 461.14 247.14C461.14 233.83 458.52 221.15 453.75 209.63C448.793 197.72 441.542 186.902 432.41 177.79ZM398.91 101.33V50.84H409.9C415.98 50.84 420.89 55.76 420.89 61.83V109.28C413.8 106.06 406.44 103.4 398.91 101.33ZM241.33 155.82C240.723 154.139 240.707 152.301 241.283 150.609C241.859 148.917 242.994 147.472 244.5 146.51C247.39 144.66 250.48 142.89 253.72 141.18C249.24 145.81 245.11 150.7 241.33 155.82ZM253.14 99.12C251.373 100.241 249.234 100.614 247.192 100.159C245.15 99.7031 243.373 98.4555 242.25 96.69C239.91 93.01 241.01 88.14 244.68 85.81C255.92 78.68 270.32 72.43 284.83 67.74C300.28 62.77 316.04 59.53 328.46 58.83C332.8 58.6 336.52 61.92 336.75 66.26C336.98 70.59 333.66 74.31 329.33 74.54C318.21 75.17 303.87 78.14 289.64 82.73C276.39 86.99 263.29 92.68 253.14 99.12ZM177.24 207.4C180.89 209.77 181.92 214.66 179.56 218.29C177.2 221.92 172.31 222.97 168.68 220.6C158.63 214.07 145.42 208.27 131.96 203.88C117.48 199.16 102.84 196.08 91.57 195.45C87.24 195.22 83.91 191.5 84.15 187.17C84.38 182.84 88.09 179.51 92.43 179.75C105.08 180.45 121.17 183.8 136.83 188.89C151.46 193.67 165.99 200.07 177.24 207.4ZM176.4 146.51C177.271 147.065 178.024 147.787 178.616 148.633C179.208 149.479 179.627 150.434 179.85 151.443C180.073 152.451 180.095 153.494 179.915 154.511C179.735 155.528 179.356 156.499 178.8 157.37C176.47 161.02 171.6 162.1 167.94 159.76C157.85 153.33 144.72 147.63 131.38 143.32C117.1 138.72 102.71 135.73 91.57 135.1C87.24 134.87 83.91 131.16 84.15 126.82C84.38 122.49 88.09 119.16 92.43 119.39C104.88 120.09 120.71 123.35 136.18 128.34C150.69 133.02 165.11 139.31 176.4 146.51ZM176.21 85.81C177.085 86.3638 177.842 87.0848 178.438 87.9317C179.034 88.7787 179.457 89.7349 179.683 90.7457C179.909 91.7564 179.933 92.8017 179.754 93.8218C179.575 94.8418 179.196 95.8165 178.64 96.69C176.31 100.37 171.44 101.45 167.76 99.12C157.6 92.68 144.5 86.99 131.26 82.73C117.03 78.14 102.69 75.17 91.57 74.54C87.24 74.31 83.91 70.59 84.15 66.26C84.38 61.92 88.09 58.6 92.43 58.83C104.86 59.53 120.62 62.77 136.06 67.74C150.58 72.43 164.98 78.68 176.21 85.81ZM199.64 277.81V73.2C188.11 52.9 169.52 39.32 148.48 31.27C124.68 22.15 87.69 20.08 64.37 23.41L63.13 241.12C88.57 240.2 123.7 243.44 147.13 251.07C165.78 257.16 183.44 266.03 199.64 277.81Z" fill="white"/>
</g>
<defs>
<clipPath id="clip0_6_2">
<rect width="512" height="398.66" fill="white"/>
</clipPath>
</defs>
</svg>
